<svg id="Layer_2" data-name="Layer 2" xmlns="http://www.w3.org/2000/svg" xmlns:xlink="http://www.w3.org/1999/xlink" viewBox="0 0 1129.78 1618.05"><defs><style>.cls-1{fill:url(#linear-gradient);}.cls-2{fill:url(#linear-gradient-2);}.cls-3{fill:url(#linear-gradient-3);}.cls-4{fill:url(#linear-gradient-4);}.cls-5{fill:url(#linear-gradient-5);}.cls-6{fill:url(#linear-gradient-6);}</style><linearGradient id="linear-gradient" x1="1066.33" y1="766.75" x2="1564.92" y2="766.75" gradientUnits="userSpaceOnUse"><stop offset="0" stop-color="#aa002f"/><stop offset="1" stop-color="#7f0003"/></linearGradient><linearGradient id="linear-gradient-2" x1="435.13" y1="1103.73" x2="1528.81" y2="1103.73" gradientUnits="userSpaceOnUse"><stop offset="0" stop-color="#ff5c00"/><stop offset="1" stop-color="#aa002f"/></linearGradient><linearGradient id="linear-gradient-3" x1="801.36" y1="935.62" x2="1273.85" y2="935.62" xlink:href="#linear-gradient"/><linearGradient id="linear-gradient-4" x1="1024.26" y1="1645.86" x2="1455.2" y2="1645.86" xlink:href="#linear-gradient"/><linearGradient id="linear-gradient-5" x1="514.91" y1="532.07" x2="1497.56" y2="532.07" gradientUnits="userSpaceOnUse"><stop offset="0" stop-color="#aa002f"/><stop offset="1" stop-color="#ff5c00"/></linearGradient><linearGradient id="linear-gradient-6" x1="451.08" y1="1481.21" x2="1027.41" y2="1481.21" xlink:href="#linear-gradient"/></defs><title>Logo</title><path class="cls-1" d="M1273.87,823.91c4.43-48.72-1.74-93.21-2.85-119.95-3.83-92-45.86-198.75-108.72-288h.42c97.55-.83,209.43,17.71,334.84,58.38,55.81,96,81.44,206.69,59.6,315.73-37,184.88-194.77,286.27-275.49,327l-.15.42c-64-24.15-138.39-46-215.18-70.23l.09-.28c159-38.26,199.63-137.24,207.43-223.08C1273.87,823.92,1273.87,823.92,1273.87,823.91Z" transform="translate(-435.13 -191.29)"/><path class="cls-2" d="M1315.55,1482.55c-21.35-10.31-40.43-16.4-52.23-20.18-88.67-28.43-167-53.52-235.92-76.19-224.91-73.92-350.9-122.05-416.34-176.09-2.55-2.11-5.08-4.25-7.57-6.45C448,1068.11,386.84,789.47,477.23,567.05a558.82,558.82,0,0,1,39.58-78.7l.42.25c-8,89.36,5.23,163.6,34,226.08,29.38,63.84,75,115.39,130.47,158.17,36.23,27.92,76.7,52.12,119.68,73.58,83.16,41.52,175.68,72.75,265,100.87,76.79,24.2,151.2,46.07,215.18,70.23.15,0,.31.11.46.17,36.69,13.88,70,28.47,98.27,44.7,136.1,78,219,207.66,67.36,556.71,28.54-64.87-32.26-146.51-36.6-153.67C1385.6,1523.58,1348,1498.2,1315.55,1482.55Z" transform="translate(-435.13 -191.29)"/><path class="cls-3" d="M1273.85,823.94c-7.8,85.84-48.47,184.82-207.43,223.08l-.09.28c-89.29-28.12-181.8-59.35-265-100.87C957.83,999.2,1244.85,1005.11,1273.85,823.94Z" transform="translate(-435.13 -191.29)"/><path class="cls-4" d="M1411,1565.44c4.34,7.15,65.13,88.79,36.6,153.67a.48.48,0,0,1-.09.2,90.74,90.74,0,0,1-22.66,30.74c-109.22,98.45-223.06,44.61-223.06,44.61C1160.26,1790,951,1651.59,1051,1482.37c35.38,93.84,121.75,88.22,161.53,72.3,38.41-15.37,84.49-27.66,103-72.12C1348,1498.2,1385.6,1523.58,1411,1565.44Z" transform="translate(-435.13 -191.29)"/><path class="cls-5" d="M1162.3,416C966.18,417.77,828,497.78,754.13,633.2c-48.81,89.47-72.43,175.71-72.46,239.64-55.5-42.78-101.08-94.33-130.47-158.17-28.75-62.47-42-136.71-34-226.08l-.42-.25C647.37,272.56,923.49,133.5,1178.72,214.77c131.08,41.74,248.77,139.08,318.84,259.61-125.41-40.67-237.29-59.21-334.84-58.38Z" transform="translate(-435.13 -191.29)"/><path class="cls-6" d="M1027.41,1386.18l-.08.22C950.58,1493,886.91,1600.84,844.9,1667c-111.93,176.17-393.82,44.61-393.82,44.61,96.92-20,132.3-140,132.3-235.37,0-86.22.45-183.45,20.12-272.58,2.49,2.2,5,4.34,7.57,6.45C676.51,1264.12,802.5,1312.26,1027.41,1386.18Z" transform="translate(-435.13 -191.29)"/></svg>