<svg id="Layer_2" data-name="Layer 2" xmlns="http://www.w3.org/2000/svg" xmlns:xlink="http://www.w3.org/1999/xlink" viewBox="0 0 1247.56 1701.39"><defs><style>.cls-1,.cls-2,.cls-3,.cls-4,.cls-5,.cls-6{stroke:#000;stroke-miterlimit:10;stroke-opacity:0;stroke-width:100px;}.cls-1{fill:url(#linear-gradient);}.cls-2{fill:url(#linear-gradient-2);}.cls-3{fill:url(#linear-gradient-3);}.cls-4{fill:url(#linear-gradient-4);}.cls-5{fill:url(#linear-gradient-5);}.cls-6{fill:url(#linear-gradient-6);}</style><linearGradient id="linear-gradient" x1="1066.33" y1="774.75" x2="1564.92" y2="774.75" gradientUnits="userSpaceOnUse"><stop offset="0" stop-color="#d03831"/><stop offset="1" stop-color="#8e0025"/></linearGradient><linearGradient id="linear-gradient-2" x1="435.13" y1="1111.73" x2="1528.81" y2="1111.73" gradientUnits="userSpaceOnUse"><stop offset="0" stop-color="#f75"/><stop offset="1" stop-color="#d03831"/></linearGradient><linearGradient id="linear-gradient-3" x1="801.36" y1="943.62" x2="1273.85" y2="943.62" xlink:href="#linear-gradient"/><linearGradient id="linear-gradient-4" x1="1032.07" y1="1645.52" x2="1455.2" y2="1645.52" xlink:href="#linear-gradient"/><linearGradient id="linear-gradient-5" x1="514.91" y1="540.07" x2="1497.56" y2="540.07" gradientUnits="userSpaceOnUse"><stop offset="0" stop-color="#d03831"/><stop offset="1" stop-color="#f75"/></linearGradient><linearGradient id="linear-gradient-6" x1="477" y1="1500.89" x2="1027.41" y2="1500.89" xlink:href="#linear-gradient"/></defs><path class="cls-1" d="M1273.87,831.91c4.43-48.72-1.74-93.21-2.85-119.95-3.83-92-45.86-198.75-108.72-288h.42c97.55-.83,209.43,17.71,334.84,58.38,55.81,96,81.44,206.69,59.59,315.73-37,184.88-194.77,286.27-275.49,327l-.15.42c-64-24.15-138.39-46-215.18-70.23l.09-.27c159-38.26,199.63-137.24,207.43-223.08Z" transform="translate(-367.36 -149.29)"/><path class="cls-2" d="M1315.55,1490.55c-21.35-10.3-40.42-16.4-52.22-20.18-88.67-28.43-167-53.52-235.92-76.19-224.91-73.92-350.9-122.06-416.34-176.1-2.56-2.11-5.08-4.24-7.57-6.44C448,1076.11,386.84,797.47,477.23,575.05a559.25,559.25,0,0,1,39.58-78.7l.42.24c-8.05,89.37,5.23,163.61,34,226.08,29.38,63.84,75,115.39,130.47,158.17,36.23,27.92,76.7,52.12,119.68,73.58,83.16,41.52,175.68,72.75,265,100.87,76.79,24.2,151.2,46.08,215.18,70.23a4.28,4.28,0,0,1,.46.17c36.69,13.87,70,28.47,98.27,44.7,136.1,78,219,207.66,67.37,556.72,28.53-64.88-32.26-146.52-36.6-153.67C1385.6,1531.58,1348,1506.2,1315.55,1490.55Z" transform="translate(-367.36 -149.29)"/><path class="cls-3" d="M1273.85,831.94c-7.8,85.84-48.47,184.82-207.43,223.08l-.09.27c-89.29-28.12-181.81-59.35-265-100.87C957.83,1007.2,1244.85,1013.11,1273.85,831.94Z" transform="translate(-367.36 -149.29)"/><path class="cls-4" d="M1411,1573.44c4.34,7.15,65.13,88.79,36.6,153.67a.62.62,0,0,1-.1.2C1404,1797,1290,1808,1217,1797c-100.79-15.19-235-108-166-306.63,35.38,93.84,246,44.64,264.51.18C1348,1506.2,1385.6,1531.58,1411,1573.44Z" transform="translate(-367.36 -149.29)"/><path class="cls-5" d="M1162.3,424C966.18,425.77,828,505.78,754.13,641.2c-48.81,89.47-72.42,175.71-72.45,239.64-55.51-42.78-101.09-94.33-130.47-158.17-28.75-62.47-42-136.71-34-226.08l-.42-.24C647.37,280.56,923.49,141.5,1178.72,222.77c131.08,41.73,248.76,139.08,318.84,259.61-125.41-40.67-237.29-59.21-334.84-58.38Z" transform="translate(-367.36 -149.29)"/><path class="cls-6" d="M1027.41,1394.18,970,1375c-126,96-27,266-120,352-134.2,124.1-373,27-373,27,122-76,106.38-174.41,106.38-269.78,0-86.23-20.38-186.22,20.12-272.58,2.49,2.2,5,4.33,7.57,6.44C676.51,1272.12,802.5,1320.26,1027.41,1394.18Z" transform="translate(-367.36 -149.29)"/></svg>